<svg width="640" height="360" viewBox="0 0 640 360" fill="none" xmlns="http://www.w3.org/2000/svg">
  <defs>
    <linearGradient id="grad" x1="0" y1="0" x2="1" y2="1">
      <stop offset="0%" stop-color="#1bb34a" stop-opacity="0.25"/>
      <stop offset="100%" stop-color="#1b5ad7" stop-opacity="0.35"/>
    </linearGradient>
  </defs>
  <rect width="640" height="360" rx="28" fill="url(#grad)"/>
  <g fill="#ffffff" opacity="0.85">
    <path d="M290 125c0-7.18 5.82-13 13-13h92c7.18 0 13 5.82 13 13v110c0 7.18-5.82 13-13 13h-92c-7.18 0-13-5.82-13-13V125Zm33 18v74l58-37-58-37Z"/>
    <circle cx="210" cy="160" r="42" fill-opacity="0.2"/>
    <path d="M202 214c-38 0-70 24-70 52 0 4 1 8 2 12h136c1-4 2-8 2-12 0-28-32-52-70-52Z"/>
  </g>
</svg>
