<svg xmlns="http://www.w3.org/2000/svg" width="256" height="256" viewBox="0 0 256 256">
  <rect width="256" height="256" rx="56" fill="#f3faf5"/>
  <circle cx="128" cy="132" r="92" fill="#e49b3c"/>
  <circle cx="128" cy="128" r="70" fill="#ffd88c"/>
  <circle cx="92" cy="104" r="26" fill="#e49b3c"/>
  <circle cx="164" cy="104" r="26" fill="#e49b3c"/>
  <circle cx="106" cy="130" r="10" fill="#2a2a2a"/>
  <circle cx="150" cy="130" r="10" fill="#2a2a2a"/>
  <path d="M118 156c6 8 14 12 20 12s14-4 20-12" stroke="#2a2a2a" stroke-width="6" fill="none" stroke-linecap="round"/>
  <path d="M128 140c-8 0-16 8-16 16h32c0-8-8-16-16-16z" fill="#b6782d"/>
  <rect x="76" y="188" width="104" height="44" rx="12" fill="#2f9c66"/>
  <rect x="90" y="180" width="76" height="20" rx="8" fill="#45b67a"/>
  <line x1="112" y1="208" x2="144" y2="208" stroke="#f2f2f2" stroke-width="4" stroke-linecap="round"/>
</svg>
